<?xml version="1.0" standalone="no"?>
<!DOCTYPE svg PUBLIC "-//W3C//DTD SVG 20010904//EN"
 "http://www.w3.org/TR/2001/REC-SVG-20010904/DTD/svg10.dtd">
<svg version="1.0" xmlns="http://www.w3.org/2000/svg"
 width="1528.000000pt" height="1600.000000pt" viewBox="0 0 1528.000000 1600.000000"
 preserveAspectRatio="xMidYMid meet">

<g transform="translate(0.000000,1600.000000) scale(0.100000,-0.100000)"
fill="#000000" stroke="none">
<path d="M8005 15990 c-214 -13 -372 -28 -590 -56 -392 -51 -427 -51 -810 -14
-406 40 -720 36 -1073 -15 -302 -44 -480 -98 -867 -265 -501 -216 -731 -298
-1145 -412 -221 -61 -313 -68 -390 -29 -25 13 -54 31 -65 41 -21 19 -65 36
-65 25 0 -18 47 -93 83 -132 78 -85 129 -98 287 -77 239 33 694 190 1330 461
371 158 607 229 941 280 161 25 197 27 484 26 276 0 335 -3 540 -27 284 -35
432 -36 610 -7 347 58 629 75 1151 68 339 -4 382 -6 526 -30 308 -51 462 -97
1050 -311 232 -85 486 -174 563 -199 486 -157 742 -198 922 -147 40 11 77 20
81 20 5 0 23 -22 40 -50 37 -59 37 -59 181 -29 56 11 106 19 111 17 22 -7 -55
-80 -135 -128 -75 -45 -84 -54 -75 -71 6 -10 25 -26 43 -35 28 -15 56 -16 232
-10 110 3 220 9 244 13 35 5 43 3 39 -8 -8 -26 -102 -89 -173 -116 -146 -55
-140 -51 -119 -75 29 -31 64 -46 162 -67 50 -11 102 -27 116 -36 l25 -17 -19
-48 -19 -48 22 -14 c12 -8 42 -22 67 -33 25 -10 57 -27 71 -37 26 -18 57 -74
46 -84 -3 -4 -27 1 -54 10 -78 27 -211 40 -261 27 l-43 -12 79 -64 c69 -55 81
-70 91 -109 6 -26 40 -88 77 -143 37 -53 73 -112 81 -131 l14 -35 -80 5 c-45
3 -81 3 -81 2 0 -2 17 -30 37 -61 71 -111 122 -266 138 -424 8 -74 -2 -87 -51
-69 -25 10 -64 -1 -64 -18 0 -4 27 -41 60 -82 33 -41 60 -78 60 -82 0 -12 -19
-10 -74 7 -27 8 -51 13 -54 11 -2 -3 16 -56 41 -118 95 -235 130 -421 131
-710 l1 -196 -27 -22 c-49 -38 -37 -82 83 -282 70 -117 99 -154 99 -127 4 221
-3 795 -11 884 -12 150 -42 332 -72 452 l-24 92 66 22 c36 12 69 24 73 28 3 3
-9 69 -27 146 -18 77 -32 142 -30 144 4 4 46 -38 113 -113 44 -48 72 -46 90 7
14 46 8 74 -69 315 -27 85 -49 159 -49 163 0 23 30 1 112 -81 49 -49 100 -93
113 -96 63 -16 104 30 86 94 -10 33 -106 206 -180 323 -65 103 -34 100 127
-12 174 -120 426 -363 508 -489 54 -84 101 -185 137 -295 30 -92 82 -308 191
-785 19 -85 58 -254 86 -375 66 -290 66 -304 -5 -215 -22 28 -43 50 -47 50 -5
0 -8 -33 -9 -72 -1 -40 -4 -99 -8 -131 l-6 -58 -38 32 c-21 17 -40 29 -43 26
-3 -3 -2 -129 3 -279 5 -150 6 -320 2 -378 -11 -168 -11 -372 1 -365 6 4 27
39 46 78 58 115 81 132 105 75 56 -135 -84 -434 -504 -1079 -136 -208 -197
-289 -197 -261 0 6 16 75 35 153 19 78 32 145 29 148 -14 15 -44 -26 -99 -133
-84 -166 -182 -302 -314 -438 -153 -158 -154 -158 -176 144 -24 321 -29 797
-15 1460 l13 612 -73 143 c-40 79 -87 166 -105 195 -31 49 -32 50 -39 24 -11
-43 5 -302 26 -441 19 -118 21 -201 28 -895 8 -777 15 -953 50 -1277 41 -375
139 -742 293 -1099 105 -245 320 -686 327 -672 4 7 12 63 19 123 17 147 54
330 92 446 33 103 100 252 118 263 16 10 14 -3 -13 -91 -77 -244 -98 -385
-100 -648 -1 -236 9 -305 71 -474 92 -252 97 -274 97 -431 1 -137 -1 -148 -24
-195 -36 -70 -104 -115 -174 -115 -314 2 -891 715 -1161 1437 -85 226 -178
559 -219 785 -49 263 -77 667 -75 1083 1 236 0 236 48 487 63 331 72 427 80
803 13 608 0 776 -105 1345 -82 442 -119 578 -244 890 -180 450 -257 593 -416
775 -162 185 -363 319 -624 415 -105 39 -365 110 -402 110 -28 0 -78 -19 -78
-29 0 -3 41 -23 91 -45 117 -50 226 -122 313 -205 130 -126 168 -186 434 -686
171 -323 227 -435 216 -435 -3 0 -43 29 -90 65 -74 56 -131 85 -171 85 -26 0
-11 -23 65 -103 201 -212 300 -421 462 -973 44 -154 92 -283 163 -440 93 -205
138 -396 158 -659 18 -254 2 -455 -62 -780 -37 -186 -73 -296 -90 -278 -4 5
-22 43 -39 86 -46 110 -55 106 -69 -34 -6 -52 -15 -157 -21 -233 -13 -170 -38
-306 -91 -495 -98 -349 -234 -626 -465 -947 -143 -199 -205 -295 -261 -409
-26 -52 -53 -97 -61 -100 -36 -14 -85 39 -108 115 -14 46 -16 85 -11 236 14
440 -27 697 -163 1039 -91 228 -88 322 14 505 91 162 164 303 186 360 116 291
190 610 245 1056 25 202 12 259 -39 172 -25 -43 -118 -338 -196 -621 -114
-415 -259 -704 -464 -924 -119 -129 -130 -152 -131 -285 0 -58 -3 -110 -7
-113 -4 -4 -25 0 -48 9 -22 9 -54 16 -71 16 -26 0 -33 -6 -49 -43 -45 -102
-70 -385 -51 -577 28 -274 77 -432 236 -760 134 -276 179 -394 219 -573 37
-163 44 -322 48 -1017 3 -540 1 -610 -13 -656 -23 -68 -50 -121 -93 -177 -20
-26 -52 -68 -71 -93 -45 -58 -47 -98 -6 -112 49 -17 141 16 251 91 160 110
373 382 495 634 32 65 67 128 78 141 28 30 63 28 204 -12 141 -41 241 -56 367
-56 121 0 181 12 278 56 44 20 81 34 84 32 3 -4 -82 -145 -168 -281 -26 -42
-37 -97 -18 -97 19 0 147 137 193 207 26 39 116 199 199 355 83 156 154 287
159 292 12 13 37 -52 57 -143 24 -115 23 -512 -1 -646 -46 -250 -183 -713
-270 -910 -135 -307 -186 -392 -216 -359 -12 13 -51 288 -51 360 0 72 13 111
80 251 28 57 53 121 56 143 7 40 6 40 -26 40 -27 0 -45 -13 -109 -75 -42 -42
-86 -78 -99 -82 -45 -11 -42 12 9 71 96 113 189 271 220 374 12 43 2 92 -20
92 -5 0 -54 -43 -109 -95 -55 -52 -107 -95 -116 -95 -21 0 -35 29 -43 87 -7
58 -19 83 -38 83 -33 0 -37 -37 -27 -228 6 -103 7 -210 3 -239 -7 -51 -32 -93
-55 -93 -6 0 -28 27 -50 60 -21 33 -50 69 -64 80 -29 23 -80 26 -107 7 -20
-15 -18 -31 10 -107 23 -61 31 -194 16 -272 -20 -102 -131 -318 -165 -318 -6
0 -36 27 -65 61 -103 116 -169 145 -210 93 -12 -15 -21 -34 -21 -43 0 -9 20
-50 44 -91 24 -41 46 -85 50 -97 9 -28 -5 -29 -84 -8 -75 20 -87 19 -106 -10
-17 -26 -17 -26 53 -94 69 -66 110 -137 101 -175 -2 -13 -13 -10 -57 20 -42
29 -55 33 -62 23 -11 -16 -4 -271 14 -514 30 -417 17 -484 -139 -740 -43 -71
-49 -108 -49 -320 l0 -200 -34 -69 c-18 -38 -53 -88 -76 -112 l-43 -42 34 -48
c19 -26 31 -51 27 -55 -5 -3 -59 -11 -122 -18 -63 -6 -116 -13 -119 -16 -20
-19 94 -69 186 -80 96 -12 146 1 225 61 85 64 93 57 52 -47 -37 -95 -124 -236
-214 -349 -42 -52 -218 -239 -391 -415 -392 -398 -455 -477 -606 -772 -84
-163 -206 -377 -264 -463 -21 -30 -69 -85 -108 -123 -55 -52 -77 -67 -100 -67
-41 0 -83 37 -141 124 -103 154 -131 240 -138 418 -6 136 -16 164 -50 137 -34
-28 -134 -173 -167 -243 -37 -77 -76 -204 -76 -248 0 -16 -3 -28 -7 -28 -5 0
-28 28 -52 62 -32 46 -45 57 -52 47 -5 -8 -9 -83 -9 -166 l0 -153 553 0 553 0
50 32 c27 17 127 69 222 115 270 129 388 214 680 485 427 398 777 845 1066
1362 287 513 544 1126 612 1457 36 177 46 350 38 627 -4 133 -4 242 0 242 14
0 57 -110 81 -205 35 -138 45 -298 45 -739 0 -523 -21 -978 -56 -1256 -46
-357 -220 -811 -436 -1132 -114 -170 -135 -183 -217 -128 -54 35 -58 32 -97
-53 -137 -298 -261 -487 -477 -729 l-69 -78 1065 0 1065 0 8 88 c9 107 -12
1234 -26 1387 -22 233 -64 439 -210 1023 -38 152 -83 338 -100 412 -17 74 -33
144 -36 155 l-5 20 16 -20 c32 -39 155 -273 238 -450 113 -243 170 -386 236
-599 31 -99 62 -181 68 -183 34 -12 27 257 -12 445 -85 417 -287 959 -533
1432 -111 215 -316 575 -476 838 -141 233 -142 248 -32 426 95 152 221 456
276 670 66 251 91 547 71 826 -6 85 -14 207 -18 270 l-6 115 22 -20 c12 -10
47 -54 77 -97 160 -228 382 -417 634 -537 71 -34 81 -36 175 -36 117 0 165 17
240 86 81 75 118 156 135 298 13 103 -2 226 -51 416 -88 344 -99 406 -99 557
0 283 88 627 226 884 91 170 187 301 413 564 243 282 427 529 558 750 37 63
97 155 132 205 242 341 365 559 435 769 59 175 69 273 63 621 -6 376 -19 440
-126 627 -101 176 -224 330 -634 796 -145 163 -366 416 -492 562 -202 233
-268 306 -415 461 -137 144 -483 420 -715 572 -121 79 -273 162 -377 207 -43
19 -88 44 -100 57 l-21 23 47 21 c39 17 68 21 153 21 58 0 115 3 125 7 19 7
19 8 -3 23 -32 20 -83 35 -149 43 -64 8 -124 31 -116 43 3 5 26 15 51 22 25 7
48 16 51 21 5 8 -63 59 -79 59 -15 0 -148 69 -180 94 -50 38 -84 48 -195 55
l-103 6 110 152 c60 83 112 157 116 164 14 22 -97 1 -245 -46 -169 -54 -185
-56 -175 -17 3 15 18 44 33 66 72 103 75 111 40 101 -13 -4 -86 -36 -163 -71
-196 -88 -240 -97 -450 -91 -335 11 -518 61 -1290 357 -379 145 -467 177 -577
209 -196 57 -423 100 -633 121 -152 15 -579 20 -760 10z m6182 -3163 c435
-537 698 -935 791 -1197 53 -151 67 -258 67 -505 -1 -241 -14 -334 -74 -507
-32 -94 -150 -376 -160 -382 -3 -2 -6 57 -6 132 0 98 -4 144 -14 161 l-14 25
-12 -25 c-7 -13 -24 -69 -38 -124 -55 -215 -133 -383 -283 -606 -50 -75 -112
-176 -138 -225 -64 -122 -150 -240 -342 -470 -89 -107 -231 -283 -316 -391
-177 -228 -204 -260 -212 -252 -13 13 77 214 164 366 88 152 335 525 443 666
50 66 158 201 241 302 163 198 199 251 252 372 50 116 74 223 80 353 5 100 1
145 -31 350 -20 129 -47 291 -61 360 -44 219 -110 402 -128 354 -13 -34 -7
-313 9 -471 18 -170 17 -193 -14 -233 l-20 -25 -21 50 c-36 85 -54 115 -77
130 -21 14 -22 13 -63 -118 -46 -143 -131 -321 -183 -382 l-33 -38 -18 37 c-9
20 -17 53 -18 74 0 20 28 136 61 256 34 121 70 267 81 325 21 111 37 161 50
161 5 0 16 -20 26 -46 15 -40 45 -74 66 -74 5 0 8 57 8 126 0 211 -50 400
-166 623 -30 58 -54 106 -54 108 0 2 28 -15 61 -38 l62 -42 -5 96 -5 96 24
-16 c31 -20 77 -111 98 -193 9 -34 23 -119 31 -188 8 -69 18 -130 21 -136 11
-18 21 32 23 119 1 44 5 91 9 103 l6 24 27 -21 c35 -28 52 -26 77 5 51 65 51
166 0 319 -35 106 -93 210 -198 355 -125 172 -271 417 -271 458 0 33 39 -6
197 -201z m-2720 -8144 c-15 -333 -108 -656 -302 -1048 -119 -242 -212 -384
-323 -496 -96 -96 -148 -123 -197 -101 -34 16 -31 41 10 98 180 254 286 452
354 659 23 72 60 220 82 330 21 110 51 233 65 273 54 149 247 410 313 421 2 1
1 -61 -2 -136z"/>
<path d="M2860 15147 c0 -2 14 -43 30 -92 17 -49 30 -92 30 -96 0 -10 -96 13
-205 50 -100 33 -166 42 -172 25 -4 -13 134 -131 227 -194 78 -53 201 -114
285 -142 90 -29 222 -31 310 -4 l60 18 -30 25 c-17 13 -69 51 -116 83 -127 86
-230 172 -273 227 -38 49 -108 103 -133 103 -7 0 -13 -1 -13 -3z"/>
<path d="M10848 15023 c-41 -10 -12 -52 60 -85 l45 -21 -34 -29 -34 -28 37
-33 c22 -19 68 -43 120 -60 111 -38 304 -133 403 -199 96 -63 260 -224 339
-329 91 -123 154 -258 131 -281 -3 -3 -46 3 -95 12 -58 11 -90 13 -90 7 0 -14
97 -186 171 -304 32 -51 54 -95 49 -98 -5 -3 -27 -3 -49 1 -46 7 -91 -1 -91
-18 0 -6 36 -62 81 -125 109 -155 130 -218 57 -168 -37 25 -72 31 -95 17 -8
-5 3 -45 39 -142 53 -143 90 -270 80 -270 -4 0 -26 7 -50 15 -37 13 -79 12
-104 -2 -4 -2 26 -72 68 -154 80 -161 80 -162 2 -123 -15 8 -29 14 -33 14 -13
0 -2 -60 20 -108 41 -89 32 -114 -31 -82 -47 25 -44 25 -44 -5 0 -29 206 -768
222 -799 21 -39 27 10 27 209 0 205 6 299 42 654 41 410 41 755 0 1086 -11 88
-23 230 -26 315 -8 182 -26 262 -90 396 -98 203 -275 423 -420 521 -138 93
-258 139 -502 192 -137 30 -169 34 -205 24z"/>
<path d="M2568 14708 l-3 -41 -130 -44 c-71 -23 -132 -43 -134 -43 -19 -1 47
-34 99 -50 72 -23 136 -57 126 -68 -4 -3 -69 -27 -144 -52 -234 -79 -372 -146
-356 -172 7 -12 102 -7 280 13 91 10 117 10 143 0 17 -8 31 -16 31 -20 0 -4
-91 -56 -202 -116 -372 -199 -523 -298 -623 -406 -126 -136 -277 -330 -430
-554 -214 -314 -426 -593 -597 -785 -178 -202 -267 -322 -366 -495 -166 -294
-262 -639 -262 -949 0 -99 25 -304 51 -411 74 -313 199 -557 389 -759 126
-134 191 -233 350 -531 92 -173 129 -223 345 -465 67 -74 150 -171 185 -215
259 -326 400 -709 400 -1090 0 -122 -18 -226 -69 -410 -59 -210 -68 -250 -85
-373 -48 -342 14 -541 193 -629 75 -37 188 -38 271 -3 202 87 437 278 581 472
110 149 220 351 319 589 29 68 55 130 60 138 5 9 19 -21 40 -85 107 -322 183
-476 369 -743 17 -24 31 -49 31 -55 0 -6 -28 -27 -62 -46 -162 -93 -453 -451
-594 -733 -80 -158 -153 -353 -177 -472 -8 -36 -7 -34 58 120 111 262 258 510
426 720 90 112 338 365 357 365 5 0 19 -55 31 -122 30 -166 39 -196 57 -206
24 -14 12 -38 -77 -159 -208 -279 -377 -649 -454 -990 -29 -131 -29 -123 -11
-123 9 0 19 20 26 53 38 157 159 467 256 652 60 115 185 327 231 390 l36 48
13 -24 c22 -40 16 -92 -20 -170 -51 -112 -69 -201 -64 -311 3 -51 -1 -162 -9
-247 -15 -172 -11 -230 32 -426 14 -66 33 -151 41 -188 19 -90 12 -122 -46
-202 -59 -80 -84 -144 -105 -267 -30 -178 -49 -233 -373 -1068 -88 -225 -167
-406 -292 -665 -401 -830 -658 -1423 -883 -2035 -41 -113 -78 -215 -82 -227
l-6 -23 722 0 722 0 -6 28 c-4 15 -13 59 -21 97 -35 167 -29 397 12 437 20 20
20 20 15 -104 -5 -98 -3 -130 9 -152 l15 -29 54 78 c53 75 54 76 60 49 4 -16
7 -68 8 -115 1 -99 24 -154 80 -198 l34 -26 -7 35 c-4 19 -9 54 -13 78 -5 40
-4 42 19 42 14 0 47 -7 74 -15 59 -18 124 -19 159 -3 32 14 29 23 -37 143
-155 282 -198 445 -198 750 0 151 -6 179 -38 187 -8 2 -26 -28 -46 -77 -19
-43 -39 -81 -45 -83 -17 -6 -35 46 -85 240 -67 260 -86 374 -98 573 -14 240
-5 703 16 815 33 184 190 681 299 950 95 233 100 244 135 298 50 77 55 76 45
-14 -37 -348 32 -695 214 -1074 96 -199 106 -247 102 -460 -6 -330 -3 -452 15
-545 58 -304 196 -613 425 -950 382 -561 428 -634 506 -789 44 -88 85 -162 92
-164 19 -5 28 45 27 153 0 104 -19 209 -59 330 -88 267 -180 429 -400 710
-229 291 -331 484 -386 729 -32 142 -34 254 -9 476 24 211 22 286 -9 386 -19
62 -66 179 -204 515 -171 415 -226 647 -227 949 0 191 40 514 68 542 4 4 23
-42 42 -104 94 -317 218 -590 418 -920 114 -188 158 -252 192 -276 49 -37 60
-75 60 -212 0 -182 40 -346 121 -498 92 -172 292 -398 481 -541 53 -40 100
-80 105 -89 4 -10 10 -179 13 -377 5 -339 7 -363 27 -410 l21 -50 27 58 c14
31 28 57 30 57 4 0 36 -102 65 -210 34 -123 77 -232 181 -456 131 -284 178
-390 204 -467 28 -78 49 -210 43 -262 l-4 -35 474 0 c448 0 474 1 467 18 -4 9
-18 57 -31 107 -36 134 -34 128 -49 115 -8 -6 -23 -40 -35 -75 -12 -35 -33
-76 -47 -91 l-26 -28 -34 39 c-39 46 -85 132 -137 258 -43 104 -83 170 -99
164 -7 -2 -16 -39 -22 -85 -6 -44 -13 -83 -16 -86 -20 -21 -146 117 -254 279
-110 165 -162 295 -226 560 -47 196 -104 335 -228 548 -57 98 -146 279 -157
316 -6 22 -4 23 22 17 16 -4 63 -25 104 -46 222 -117 228 -119 340 -130 58 -5
175 -14 261 -19 86 -6 171 -17 190 -24 109 -45 252 -46 434 -3 226 54 373 119
503 221 105 84 175 172 262 333 69 128 74 134 99 127 14 -3 76 -9 136 -12 84
-4 125 -1 174 11 35 9 65 15 67 13 2 -2 19 -82 38 -178 82 -412 151 -617 284
-851 62 -109 388 -526 488 -625 89 -87 251 -162 292 -135 23 15 -19 81 -100
157 -142 132 -322 341 -486 563 -43 58 -62 93 -62 113 0 36 13 37 76 3 251
-134 260 -137 302 -108 32 22 29 71 -7 121 -16 22 -59 74 -96 114 -203 223
-274 386 -262 608 4 87 14 135 52 266 96 325 98 343 44 374 -36 20 -36 35 -3
78 29 38 52 41 128 18 67 -21 156 -19 216 4 115 44 259 177 323 299 48 93 66
159 77 284 5 63 16 120 25 138 9 18 54 72 101 122 46 50 108 127 137 172 58
88 305 557 416 788 38 79 103 212 145 297 74 149 103 228 88 243 -4 4 -21 1
-38 -6 -35 -16 -61 -57 -223 -358 -61 -113 -155 -280 -209 -370 -240 -397
-406 -664 -422 -682 -18 -18 -18 -16 -25 49 -11 99 -2 193 24 243 12 24 56 90
96 146 112 153 144 238 165 436 6 58 13 106 15 108 5 6 12 -27 25 -116 8 -52
17 -81 24 -79 27 9 76 132 87 217 31 253 46 309 119 430 50 84 63 156 64 345
0 162 -10 235 -51 360 -102 315 -336 554 -575 590 -43 7 -50 5 -76 -22 -25
-25 -31 -40 -37 -104 -7 -68 -36 -150 -53 -149 -4 1 -29 14 -57 31 -136 81
-305 147 -305 119 0 -11 59 -56 130 -100 308 -191 490 -487 450 -733 -17 -99
-24 -107 -39 -45 -37 146 -176 334 -335 455 -161 121 -438 212 -531 173 -16
-6 0 -17 90 -59 231 -107 313 -157 442 -265 203 -169 286 -309 268 -449 -7
-52 -39 -135 -68 -172 -15 -20 -16 -19 -38 10 -44 59 -146 151 -226 203 -66
44 -102 79 -209 205 -221 261 -381 408 -546 500 -67 37 -118 50 -125 30 -2 -6
56 -63 129 -126 73 -63 165 -147 203 -188 68 -72 225 -274 225 -289 0 -4 -31
-10 -70 -12 -93 -5 -107 -20 -38 -41 190 -55 228 -70 272 -98 32 -21 64 -56
92 -100 68 -105 125 -277 109 -328 -6 -19 -186 -161 -281 -223 -155 -100 -344
-162 -533 -174 -264 -18 -644 116 -1019 358 -514 331 -695 430 -965 524 -114
39 -169 68 -209 111 -38 40 -94 151 -108 216 -12 52 -7 127 8 127 4 0 33 -46
64 -103 31 -56 76 -121 99 -145 53 -53 136 -93 209 -99 49 -5 60 -3 79 16 25
25 28 76 7 126 -8 18 -52 71 -98 117 -46 46 -100 109 -121 140 -51 78 -79 98
-137 98 -33 0 -55 6 -74 21 -25 20 -26 23 -26 133 0 97 3 115 19 130 18 16 19
14 34 -70 17 -94 28 -114 61 -114 55 0 96 61 96 142 l0 53 98 0 c91 0 104 3
165 33 41 20 93 58 134 99 l67 65 51 -7 c86 -12 117 -10 131 10 17 23 8 73
-19 102 -25 28 -17 50 28 68 74 31 107 18 159 -65 27 -43 93 -69 132 -51 35
16 31 57 -11 117 -19 27 -35 52 -35 55 0 4 27 10 60 14 33 4 60 10 60 13 0 4
-18 30 -40 57 -38 48 -39 50 -17 53 12 2 63 -18 112 -43 49 -25 95 -45 102
-45 24 0 25 27 4 68 -16 31 -41 53 -112 98 -51 32 -87 60 -81 62 5 1 45 -9 87
-23 62 -22 82 -25 101 -16 13 6 24 18 24 27 0 22 -61 79 -111 105 -21 10 -39
25 -39 33 0 7 21 21 46 31 142 54 183 213 54 208 -47 -2 -112 -34 -270 -132
-133 -82 -184 -101 -295 -108 -205 -13 -389 88 -469 256 -28 60 -31 75 -31
166 0 85 4 107 24 148 26 54 84 102 140 116 81 22 242 40 267 31 53 -21 13
-92 -88 -156 -118 -75 -178 -141 -178 -197 0 -40 49 -125 97 -167 71 -62 139
-83 253 -77 145 7 255 51 525 208 158 92 186 115 215 175 30 62 43 203 30 321
-32 293 -175 516 -512 799 -157 132 -304 215 -514 292 -268 98 -414 119 -714
102 -378 -22 -861 -120 -1055 -214 -167 -82 -248 -178 -391 -468 -93 -189 -96
-207 -120 -627 -14 -260 -15 -337 -6 -445 20 -220 83 -407 187 -550 102 -143
506 -495 602 -526 21 -7 62 -26 92 -41 60 -32 79 -34 161 -17 50 10 60 9 104
-10 75 -34 103 -30 151 23 23 24 45 42 49 38 3 -3 6 -28 6 -55 0 -39 -5 -54
-25 -73 -31 -32 -68 -32 -181 0 l-87 26 -43 -23 c-36 -19 -47 -20 -78 -11 -36
11 -37 11 -78 -38 -22 -27 -45 -49 -50 -49 -4 0 -8 22 -8 49 0 63 -15 105 -44
121 -47 24 -57 12 -124 -142 l-63 -147 10 -57 c13 -69 34 -104 63 -104 12 0
48 21 80 46 72 56 80 46 49 -65 -28 -105 -27 -136 5 -166 43 -40 62 -41 98 -6
18 17 35 31 39 31 3 0 8 -57 9 -127 l3 -128 40 -14 c58 -19 175 -2 256 39 122
62 198 158 238 300 53 189 53 188 64 160 6 -14 11 -90 11 -170 1 -136 -1 -148
-25 -200 -36 -77 -74 -117 -224 -237 -206 -165 -279 -243 -486 -520 -279 -373
-311 -406 -403 -406 -97 0 -112 14 -239 227 -56 94 -129 207 -162 251 -94 123
-138 192 -187 290 -99 196 -145 380 -158 623 -4 84 -10 155 -13 159 -4 3 -18
-2 -32 -11 -24 -16 -26 -16 -35 8 -19 51 -21 200 -6 441 74 1167 120 1500 251
1850 42 113 166 366 246 500 95 162 130 234 155 322 69 236 143 436 250 668
41 88 74 166 74 173 0 9 -10 12 -27 10 -57 -6 -194 -249 -278 -493 -79 -225
-148 -388 -264 -615 -57 -113 -134 -264 -170 -336 -63 -123 -142 -335 -175
-469 -24 -96 -44 -223 -81 -516 -19 -151 -39 -298 -45 -328 -5 -29 -10 -55
-10 -57 0 -2 -4 -4 -10 -4 -53 0 -60 298 -16 625 15 110 30 263 33 340 5 122
3 151 -16 222 -44 170 -23 356 70 633 120 354 145 506 136 815 -7 222 -16 271
-85 448 -22 56 -97 278 -167 492 -70 215 -134 403 -142 418 -17 33 -49 67 -63
67 -54 0 94 -569 233 -895 95 -222 101 -258 102 -555 0 -231 -2 -265 -23 -360
-13 -58 -45 -159 -72 -225 -26 -66 -57 -156 -69 -200 -39 -142 -62 -205 -76
-205 -13 0 -35 70 -35 113 0 14 -13 74 -29 133 -16 60 -43 161 -60 224 -28
108 -77 320 -136 595 -29 137 -39 182 -95 426 -106 463 -105 708 6 1489 50
355 71 474 102 574 l27 88 36 3 c68 4 138 58 247 190 178 217 284 297 486 369
55 20 102 38 105 42 10 9 -31 34 -57 34 -13 0 -49 -7 -79 -16 -30 -9 -58 -13
-61 -9 -12 12 217 223 304 281 189 126 375 183 647 200 79 4 107 9 107 19 0
43 -196 92 -326 81 -171 -14 -348 -78 -522 -190 -215 -138 -351 -283 -692
-736 l-192 -255 7 65 c13 124 57 326 96 443 112 336 386 884 600 1198 44 66
51 94 18 84 -58 -19 -155 -45 -165 -45 -7 0 -22 17 -34 37 l-21 36 -181 -179
c-337 -335 -420 -437 -526 -649 -106 -212 -206 -511 -267 -802 -49 -236 -59
-342 -60 -608 0 -261 7 -339 51 -570 17 -88 28 -192 34 -325 16 -327 30 -417
204 -1254 122 -585 146 -775 146 -1126 0 -496 -50 -805 -201 -1255 -251 -747
-541 -1198 -878 -1367 -110 -55 -190 -50 -253 18 -48 52 -60 156 -37 334 11
93 24 148 92 382 81 276 95 379 78 563 -25 257 -101 526 -218 760 -98 198
-232 382 -423 580 -150 156 -223 258 -303 425 -83 174 -185 331 -353 542 -143
180 -174 259 -174 448 0 64 -5 143 -11 176 -11 60 -46 144 -61 144 -12 0 -44
-69 -63 -137 -10 -35 -21 -63 -26 -63 -4 0 -12 15 -18 33 -18 56 -61 405 -61
496 0 310 147 668 473 1156 88 131 380 522 405 543 59 47 34 -27 -81 -238
-132 -243 -314 -612 -332 -675 -8 -28 -16 -77 -16 -109 -2 -53 1 -62 25 -83
94 -80 189 2 323 277 68 140 85 169 104 170 3 0 9 -73 12 -162 5 -155 20 -248
48 -301 12 -20 12 -20 24 4 9 16 14 107 18 289 13 599 114 987 373 1436 131
227 194 306 309 383 189 128 412 247 389 209 -4 -7 -49 -65 -100 -128 -161
-202 -244 -344 -278 -476 -23 -91 -25 -88 49 -81 36 4 65 5 65 4 0 -5 -41
-129 -64 -195 -14 -41 -26 -94 -26 -119 0 -45 0 -45 23 -31 21 14 71 84 130
184 15 26 32 43 36 38 4 -5 15 -43 25 -85 18 -81 45 -119 84 -119 25 0 87 52
106 89 27 52 147 392 141 401 -3 5 -33 17 -65 26 -33 9 -60 21 -60 26 0 17 63
70 145 122 64 41 81 57 83 78 4 34 -20 48 -107 62 -51 9 -65 15 -72 32 -12 35
15 61 123 115 55 28 125 67 156 87 l55 37 -39 12 c-21 6 -82 24 -133 40 -52
15 -95 32 -95 37 -1 16 111 72 212 106 107 36 172 66 172 78 0 11 -64 42 -155
76 -80 30 -132 61 -117 70 6 3 84 10 174 16 90 5 177 14 193 19 47 14 103 40
109 49 11 18 -75 52 -200 82 -159 38 -182 47 -190 72 -7 25 7 35 58 43 21 3
56 8 79 11 22 3 52 16 67 29 27 23 27 24 7 39 -41 30 -188 76 -247 76 -36 0
-37 -1 -40 -42z m3508 -5419 c29 -8 61 -26 85 -49 33 -31 39 -44 39 -76 0 -22
-5 -45 -12 -52 -8 -8 -62 -12 -172 -13 -89 0 -181 -6 -206 -12 -40 -11 -45
-15 -48 -44 l-3 -32 253 -3 c251 -3 254 -3 310 -30 68 -32 149 -105 186 -166
31 -55 32 -109 3 -176 -15 -35 -24 -83 -30 -160 -11 -150 -34 -199 -103 -225
-23 -9 -32 -7 -54 12 -24 21 -27 31 -31 117 -6 116 -15 144 -58 165 -31 14
-51 14 -222 1 -196 -16 -300 -38 -356 -78 -51 -37 -84 -94 -97 -167 -19 -114
-62 -159 -108 -113 -10 10 -28 57 -40 103 -12 47 -25 96 -30 109 l-9 24 -31
-30 c-43 -44 -56 -99 -48 -219 3 -55 8 -110 12 -122 12 -43 -17 -24 -38 25
-58 135 -114 251 -135 280 -43 57 -65 66 -192 73 -121 6 -170 22 -243 80 -38
31 -72 19 -108 -38 -17 -26 -30 -55 -30 -65 0 -35 -41 -125 -74 -164 -74 -87
-47 -120 149 -184 130 -42 181 -69 234 -120 94 -91 120 -220 67 -335 -55 -121
-226 -248 -391 -290 -97 -25 -172 -4 -147 41 5 9 42 30 83 48 135 58 251 157
295 251 30 62 30 97 2 146 -29 52 -79 83 -195 120 -203 65 -277 119 -308 223
-32 108 -12 264 51 388 41 81 134 211 197 276 165 170 350 245 683 277 251 24
313 42 485 140 56 33 123 65 148 72 51 14 163 10 237 -8z m-2389 -3926 l36
-53 -12 -57 c-43 -202 -74 -316 -81 -297 -16 43 -52 243 -59 332 -9 102 1 251
20 298 11 28 13 25 36 -71 17 -73 33 -113 60 -152z m5393 -34 c9 -22 8 -33 -6
-60 -26 -51 -66 -101 -74 -92 -4 4 -24 69 -44 143 -21 74 -42 148 -47 164 -5
16 -9 32 -9 35 0 14 170 -165 180 -190z m-5006 -446 c13 -27 40 -95 61 -151
44 -120 88 -182 169 -239 64 -44 90 -86 105 -165 11 -62 30 -104 68 -155 39
-50 63 -126 63 -196 0 -91 -19 -287 -32 -326 -10 -33 -11 -34 -25 -15 -22 28
-60 117 -95 219 -54 158 -127 333 -194 468 -36 72 -79 171 -95 220 -32 98 -84
361 -74 377 12 19 25 9 49 -37z m4793 -69 c21 -33 12 -85 -42 -229 -78 -209
-182 -393 -269 -473 -64 -59 -87 -59 -160 -1 -27 21 -57 39 -67 39 -10 0 -45
-24 -78 -53 -63 -57 -111 -77 -181 -77 l-43 0 47 50 c72 77 109 174 131 343
11 83 21 88 194 85 185 -4 184 -4 262 148 89 175 162 234 206 168z m-1765
-105 c215 -45 456 -331 562 -668 44 -140 59 -250 52 -386 -10 -191 -46 -325
-150 -556 -161 -357 -385 -664 -559 -768 -124 -73 -293 -112 -403 -92 -160 30
-302 159 -320 294 -8 57 10 256 47 512 23 161 32 272 39 475 11 299 20 385 56
519 55 203 157 385 293 522 85 85 150 127 225 145 66 16 93 16 158 3z m949
-178 c11 -13 19 -39 19 -57 0 -28 -5 -36 -27 -45 -73 -28 -190 46 -167 105 8
20 29 25 98 22 48 -2 63 -7 77 -25z m-1901 -126 c75 -42 211 -150 216 -171 4
-15 -6 -44 -29 -86 -62 -111 -67 -143 -82 -488 -15 -330 -19 -374 -60 -585
-32 -166 -44 -416 -25 -525 20 -111 18 -139 -12 -165 -34 -29 -222 -82 -336
-95 -196 -22 -424 21 -617 115 -290 141 -447 348 -536 705 -20 81 -23 120 -24
265 0 186 12 261 67 435 53 166 101 237 220 325 53 40 61 43 145 49 48 4 123
14 166 23 73 15 79 14 97 -2 11 -10 20 -30 20 -45 0 -42 -87 -417 -116 -500
-35 -101 -76 -180 -139 -270 -28 -41 -59 -90 -69 -108 -16 -32 -16 -32 9 -44
20 -9 31 -8 51 3 40 21 129 122 174 197 54 92 81 176 139 442 69 310 88 358
174 437 98 90 179 113 382 110 128 -2 155 -5 185 -22z m2937 -286 c32 -64 57
-264 50 -404 -10 -185 -53 -303 -146 -395 -92 -91 -227 -143 -275 -107 -17 12
-18 18 -8 47 15 42 15 99 1 195 -14 95 -1 191 39 273 67 137 236 434 255 447
29 20 55 3 84 -56z m-691 -204 c16 -64 -29 -194 -91 -263 -97 -108 -327 -179
-404 -126 -25 18 -55 79 -46 94 8 12 72 20 196 24 94 2 111 5 152 29 52 31 82
75 121 180 14 38 28 72 31 78 12 18 35 9 41 -16z m-156 -47 c0 -62 -86 -133
-176 -144 -34 -5 -46 -3 -39 4 19 20 200 161 208 162 4 0 7 -10 7 -22z m274
-458 c61 -31 88 -67 90 -116 1 -36 -1 -39 -34 -44 -52 -9 -76 -28 -185 -151
-131 -146 -248 -256 -318 -298 -116 -69 -259 -110 -333 -97 -32 7 -114 68
-114 86 0 19 135 172 216 245 48 44 153 144 232 222 170 167 200 185 322 180
58 -1 87 -8 124 -27z"/>
<path d="M8425 13745 c-130 -29 -283 -101 -318 -150 -10 -14 -14 -25 -9 -25 4
0 89 14 188 31 306 53 494 51 655 -7 37 -13 69 -24 73 -24 3 0 6 12 6 26 0
109 -364 200 -595 149z"/>
<path d="M8796 13464 c-9 -8 -16 -24 -16 -34 0 -23 26 -50 47 -50 23 0 307
-98 406 -140 207 -89 423 -251 558 -420 71 -88 93 -157 32 -98 -111 106 -285
212 -395 240 -37 9 -50 9 -62 -1 -9 -8 -16 -17 -16 -21 0 -5 59 -40 131 -79
230 -125 339 -217 484 -411 90 -121 143 -224 152 -298 8 -70 -7 -67 -53 11
-186 309 -519 568 -802 623 -142 27 -273 9 -402 -56 -92 -46 -101 -37 -42 41
54 71 136 138 237 195 79 43 90 56 75 83 -6 11 -20 25 -31 31 -21 12 -30 10
-117 -17 l-52 -17 -31 37 c-54 66 -122 45 -232 -72 l-67 -71 -15 23 c-25 39
-38 167 -26 265 15 123 14 149 -9 172 -62 62 -223 -37 -287 -176 -46 -102 -45
-212 6 -477 23 -120 25 -137 13 -137 -5 0 -35 93 -67 206 l-59 206 -14 -38
c-25 -66 -20 -246 12 -419 15 -82 30 -166 32 -185 l5 -35 -25 30 c-14 17 -33
53 -42 80 -43 131 -57 160 -65 140 -13 -33 -9 -244 6 -350 8 -55 15 -113 14
-130 l0 -30 -25 29 c-14 15 -27 27 -28 25 -4 -4 -46 -376 -53 -475 -6 -68 15
-157 49 -213 41 -65 220 -267 321 -360 127 -118 177 -155 190 -142 20 20 -35
115 -167 288 -25 34 -53 78 -62 99 -25 60 -18 213 12 262 22 34 64 29 103 -13
35 -38 68 -45 111 -20 40 23 77 18 143 -19 84 -47 181 -71 380 -96 93 -11 188
-25 210 -30 61 -14 123 -12 163 5 36 15 211 184 380 368 133 145 126 143 364
106 220 -34 411 -51 424 -39 13 13 -30 67 -184 225 -75 77 -179 192 -233 255
-53 63 -136 160 -185 215 -88 98 -89 99 -73 126 33 59 -40 170 -249 380 -238
238 -444 351 -730 399 -138 24 -125 23 -144 4z m225 -1050 c14 -12 19 -31 19
-65 0 -39 -4 -51 -26 -68 -31 -25 -81 -27 -111 -6 -45 32 -38 129 10 154 29
14 85 6 108 -15z m559 -178 c28 -58 27 -145 -2 -205 -54 -113 -227 -233 -383
-266 -89 -19 -109 -19 -203 1 -98 20 -162 54 -233 124 -71 70 -93 130 -92 248
0 70 3 87 20 103 20 20 20 20 43 -43 49 -137 115 -219 222 -275 49 -26 62 -28
163 -28 102 0 114 2 168 29 64 33 125 93 156 154 11 22 34 84 52 137 30 94 31
96 49 80 11 -10 29 -36 40 -59z m-980 -328 c0 -118 -3 -145 -17 -160 -21 -24
-85 -23 -140 2 -70 31 -61 56 87 233 30 36 58 66 63 66 4 1 7 -63 7 -141z"/>
<path d="M4642 13293 c3 -16 11 -49 18 -74 22 -78 12 -85 -65 -43 -45 25 -79
37 -106 37 -57 0 -65 -12 -51 -74 26 -109 13 -171 -52 -247 -20 -24 -36 -49
-36 -55 0 -6 -9 -29 -20 -52 -26 -54 -76 -81 -165 -90 -189 -19 -365 -89 -498
-199 -68 -55 -390 -428 -467 -541 -51 -75 -73 -157 -73 -275 0 -155 30 -304
62 -313 37 -9 43 8 57 164 17 175 34 253 72 322 24 45 113 137 132 137 5 0 27
-37 49 -82 30 -62 66 -111 141 -193 69 -76 104 -122 112 -150 26 -89 135 -159
248 -160 74 0 530 33 573 41 34 7 52 43 62 125 8 62 -9 116 -50 159 l-23 25
70 88 c51 65 73 86 81 78 18 -18 32 -295 19 -374 -15 -84 -56 -176 -110 -244
-42 -53 -75 -117 -64 -127 21 -21 56 0 130 79 43 47 83 85 87 85 4 0 4 -38 0
-84 -5 -59 -4 -90 5 -106 l13 -24 17 35 c30 57 191 470 211 537 47 165 63 313
63 607 1 217 -2 285 -12 304 -8 13 -18 19 -22 15 -5 -5 -20 -58 -35 -119 -26
-105 -77 -225 -97 -225 -6 0 -7 16 -4 38 3 20 13 123 22 227 23 274 9 387 -71
551 -71 146 -144 224 -211 224 -12 0 -15 -7 -12 -27z m-388 -914 c51 -23 58
-110 10 -131 -12 -6 -35 -7 -50 -4 -37 10 -84 59 -84 90 0 47 67 71 124 45z
m-294 -36 c0 -5 -7 -30 -16 -58 -9 -27 -16 -84 -17 -125 -1 -93 29 -167 96
-233 58 -59 125 -82 237 -81 144 1 223 51 290 185 31 59 32 61 46 40 23 -32
28 -83 12 -121 -8 -19 -39 -61 -67 -92 -90 -98 -245 -158 -371 -144 -224 26
-377 174 -388 373 -5 92 17 159 74 219 31 34 48 44 72 44 18 0 32 -3 32 -7z"/>
<path d="M4050 12969 c-161 -27 -405 -185 -573 -372 -104 -117 -201 -266 -184
-283 15 -15 122 77 199 171 103 127 218 208 463 325 88 42 166 84 173 93 34
41 -10 78 -78 66z"/>
<path d="M2246 12788 c-68 -44 -91 -86 -118 -213 -22 -106 -23 -126 -23 -590
-1 -364 -4 -493 -14 -535 -23 -96 -15 -102 55 -37 68 63 124 157 144 245 15
63 8 108 -22 139 -31 33 -46 239 -29 408 11 111 24 170 107 478 29 107 29 109
10 123 -30 21 -58 17 -110 -18z"/>
<path d="M813 11452 c-63 -61 -120 -124 -131 -147 -51 -105 -68 -404 -33 -570
11 -49 27 -107 35 -127 20 -46 20 -125 1 -158 -17 -30 -21 -278 -5 -361 13
-66 58 -164 107 -233 20 -28 89 -105 153 -171 160 -164 264 -285 388 -449 390
-520 568 -920 612 -1376 6 -63 17 -164 25 -223 8 -59 15 -110 15 -112 0 -3 6
-5 14 -5 17 0 50 99 195 572 153 500 187 650 215 949 54 581 43 1010 -36 1494
-32 198 -32 204 -33 545 0 309 -2 348 -17 377 -10 17 -22 34 -27 37 -16 10
-78 -70 -115 -146 -85 -177 -86 -360 -2 -667 116 -423 150 -897 106 -1491 -11
-146 -49 -421 -61 -434 -10 -11 -314 371 -410 517 -43 64 -97 158 -121 207
-24 49 -46 89 -49 89 -18 2 -29 -57 -23 -125 6 -61 4 -74 -8 -74 -26 0 -58 45
-94 136 -50 125 -95 207 -160 293 -130 173 -205 311 -240 441 -25 95 -35 101
-70 46 -16 -25 -32 -46 -35 -46 -11 0 -39 74 -49 129 -6 29 -10 99 -10 154 0
55 -5 129 -11 164 -11 61 -13 64 -35 59 -13 -3 -35 -9 -48 -12 -21 -5 -24 -1
-30 30 -12 64 29 282 63 334 5 9 15 -13 30 -70 39 -148 63 -222 86 -268 l23
-45 10 40 c6 22 12 187 15 367 l4 327 -38 -19 c-21 -11 -43 -20 -48 -20 -5 0
-15 26 -21 58 -20 102 -13 102 -137 -16z"/>
<path d="M8420 10898 c0 -18 246 -311 271 -322 26 -12 43 5 36 36 -8 30 -95
147 -151 201 -45 45 -123 97 -143 97 -7 0 -13 -6 -13 -12z"/>
<path d="M1233 10703 c-14 -21 -19 -53 -21 -139 -4 -109 -2 -115 38 -235 43
-129 130 -306 219 -446 49 -77 72 -96 85 -74 7 11 -47 328 -75 441 -58 234
-173 480 -223 480 -3 0 -14 -12 -23 -27z"/>
<path d="M8514 9986 c-4 -10 2 -41 14 -69 88 -214 186 -515 246 -752 42 -167
55 -231 92 -445 38 -228 61 -315 106 -405 82 -161 253 -325 341 -325 52 0 112
105 123 218 10 94 -9 156 -92 298 -325 554 -518 910 -603 1114 -84 202 -137
302 -182 346 -33 32 -39 35 -45 20z"/>
<path d="M5260 9697 c-57 -53 -109 -89 -189 -131 -131 -68 -171 -99 -171 -132
0 -13 5 -24 10 -24 20 0 275 62 292 72 19 9 158 179 177 216 8 15 9 28 2 41
-21 39 -40 32 -121 -42z"/>
<path d="M6592 9589 c-51 -20 -122 -76 -122 -97 0 -24 65 -32 191 -26 77 4
128 3 132 -3 3 -5 -28 -35 -68 -67 -41 -32 -72 -62 -69 -67 13 -22 71 -40 171
-55 140 -21 163 -33 162 -82 0 -20 -4 -46 -8 -57 -5 -11 -4 -28 1 -38 5 -9 67
-46 138 -82 134 -67 186 -79 224 -52 33 24 16 58 -59 114 -38 28 -71 56 -73
62 -2 5 17 21 42 36 25 15 46 31 46 36 0 21 -42 90 -63 103 -12 8 -58 26 -103
40 -44 14 -89 34 -98 45 -10 11 -21 45 -25 77 -10 70 -27 86 -121 114 -91 27
-225 27 -298 -1z"/>
<path d="M8826 7773 c-12 -54 63 -406 109 -509 35 -80 98 -167 157 -217 29
-25 136 -96 238 -158 228 -138 293 -189 367 -286 81 -105 82 -107 87 -102 12
14 26 51 26 71 -1 36 -44 132 -80 178 -37 47 -178 147 -347 246 -137 81 -245
183 -309 290 -39 66 -58 110 -150 352 -21 57 -51 118 -65 135 l-26 32 -7 -32z"/>
<path d="M7366 7084 c-3 -9 -6 -34 -6 -56 0 -73 78 -121 141 -88 10 6 19 20
19 32 0 70 -133 167 -154 112z"/>
<path d="M7156 6941 c-8 -13 15 -60 42 -84 45 -41 90 12 49 58 -24 27 -80 44
-91 26z"/>
<path d="M4211 6783 c-28 -35 -34 -63 -22 -96 21 -54 49 -45 114 36 l30 39
-29 24 c-38 31 -68 30 -93 -3z"/>
<path d="M7072 6774 c-28 -20 -28 -45 1 -72 29 -28 57 -28 91 -1 33 26 33 33
-1 57 -42 29 -66 34 -91 16z"/>
<path d="M4333 6658 c-88 -91 -118 -158 -70 -158 45 0 177 118 177 158 0 19
-27 62 -38 62 -4 0 -35 -28 -69 -62z"/>
<path d="M7302 6711 c-8 -4 -12 -21 -10 -37 4 -35 77 -94 117 -94 28 0 61 26
61 49 0 54 -120 113 -168 82z"/>
<path d="M6850 6673 c-14 -9 -27 -18 -29 -20 -8 -6 92 -103 120 -118 23 -13
28 -12 41 3 38 44 24 94 -35 131 -41 25 -65 26 -97 4z"/>
<path d="M4443 6585 c-24 -17 -73 -96 -73 -119 0 -9 13 -30 28 -47 l29 -32 56
91 c32 51 57 96 57 101 0 23 -66 28 -97 6z"/>
<path d="M6687 6562 c-26 -29 -21 -45 30 -87 132 -112 193 -124 193 -39 0 24
-10 40 -44 72 -77 71 -145 92 -179 54z"/>
<path d="M7140 6528 c-23 -38 -24 -42 -9 -69 11 -22 102 -69 131 -69 32 0 68
23 68 44 0 11 -24 43 -55 73 -68 66 -104 71 -135 21z"/>
<path d="M4588 6533 c-29 -33 -61 -104 -65 -147 -5 -37 -2 -46 27 -74 17 -18
35 -32 40 -32 19 0 69 73 99 143 17 42 31 80 31 86 0 16 -55 41 -88 41 -16 0
-36 -8 -44 -17z"/>
<path d="M6457 6522 c-10 -10 -17 -23 -17 -29 0 -17 167 -172 193 -178 22 -6
87 17 87 30 0 41 -86 137 -152 171 -57 29 -89 30 -111 6z"/>
<path d="M6086 6433 c-7 -16 -18 -64 -24 -107 -10 -72 -9 -83 9 -118 47 -93
150 -169 202 -149 32 12 57 48 57 82 0 16 -15 47 -35 73 -41 54 -80 129 -90
173 -14 67 -92 97 -119 46z"/>
<path d="M6314 6369 c-9 -18 -13 -41 -10 -55 7 -26 67 -65 146 -95 49 -19 52
-19 86 -1 l36 19 -32 36 c-17 20 -59 57 -92 82 -74 56 -110 59 -134 14z"/>
<path d="M4250 6327 c-35 -17 -65 -76 -56 -110 14 -58 83 -60 110 -3 22 46 20
70 -6 100 -21 23 -26 25 -48 13z"/>
<path d="M6936 6265 c-32 -33 3 -94 75 -131 60 -30 96 -26 105 11 17 69 -131
168 -180 120z"/>
<path d="M7277 6253 c-10 -10 -8 -52 3 -72 11 -21 79 -51 115 -51 28 0 49 31
40 60 -12 37 -63 70 -109 70 -24 0 -46 -3 -49 -7z"/>
<path d="M6677 6192 c-33 -34 -34 -68 -4 -112 38 -57 92 -93 139 -94 35 -1 44
3 56 24 30 52 -31 165 -105 196 -45 19 -56 18 -86 -14z"/>
<path d="M4390 6154 l-43 -57 23 -19 c32 -26 47 -23 71 15 14 22 18 42 15 66
-9 56 -20 55 -66 -5z"/>
<path d="M6421 6131 c-29 -29 -26 -60 9 -109 35 -46 86 -82 119 -82 87 0 80
104 -11 174 -50 37 -91 43 -117 17z"/>
<path d="M6992 6024 c-29 -20 -28 -27 9 -69 55 -63 120 -83 152 -47 15 16 14
21 -9 60 -39 66 -104 90 -152 56z"/>
<path d="M4524 6010 c-51 -20 -85 -111 -51 -138 51 -41 107 -4 107 72 0 27 -6
51 -16 60 -8 9 -16 16 -17 15 -1 0 -12 -4 -23 -9z"/>
<path d="M4730 5938 c-59 -81 -62 -165 -7 -198 21 -13 36 -16 47 -10 20 11 40
81 40 140 0 45 -23 110 -39 110 -6 0 -24 -19 -41 -42z"/>
<path d="M6350 5948 c-12 -20 -20 -51 -20 -77 0 -40 5 -49 45 -88 50 -47 82
-54 109 -24 49 53 23 154 -49 196 -54 32 -61 31 -85 -7z"/>
<path d="M6818 5920 c-37 -22 -22 -64 43 -124 70 -65 102 -71 128 -24 14 24
14 30 -1 61 -32 66 -126 114 -170 87z"/>
<path d="M6611 5844 c-42 -53 -16 -190 42 -229 41 -27 94 -31 118 -9 28 25 21
75 -21 160 -49 100 -99 128 -139 78z"/>
<path d="M4884 5679 c-35 -10 -44 -29 -44 -100 0 -32 6 -55 21 -73 46 -59 79
-17 79 101 0 89 1 89 -56 72z"/>
<path d="M7876 238 c-3 -13 -6 -47 -6 -76 0 -55 -19 -113 -47 -144 -15 -17
-11 -18 101 -18 l117 0 -29 53 c-16 28 -48 87 -71 130 -23 42 -46 77 -51 77
-4 0 -10 -10 -14 -22z"/>
</g>
</svg>
